<svg width="11" height="8" viewBox="0 0 11 8" fill="none" xmlns="http://www.w3.org/2000/svg">
<path fill-rule="evenodd" clip-rule="evenodd" d="M5.15532 4.93798e-05C7.39826 0.032377 9.23838 2.0813 10.16 3.84423C10.16 3.84423 9.83571 4.51859 9.53153 4.95027C9.38432 5.15911 9.22948 5.36256 9.06678 5.55932C8.95075 5.69941 8.8309 5.83583 8.7066 5.96837C7.59574 7.15372 6.0004 8.03799 4.31576 7.69467C2.44424 7.3132 0.917623 5.68389 0 3.93152C0 3.93152 0.325814 3.25652 0.631688 2.82548C0.768716 2.63216 0.912533 2.44402 1.06314 2.26147C1.17853 2.1216 1.29816 1.98518 1.42183 1.85264C2.4033 0.801774 3.66265 -0.00727821 5.15532 4.93798e-05ZM5.14747 0.862119C3.8981 0.857378 2.85914 1.56621 2.03718 2.44617C1.9254 2.56578 1.81764 2.68906 1.71328 2.81535C1.57604 2.98173 1.44495 3.1535 1.32001 3.32958C1.19507 3.50544 1.06695 3.72742 0.96535 3.916C1.77437 5.29725 2.98875 6.54488 4.48269 6.84941C5.87483 7.13325 7.17405 6.3535 8.0921 5.37398C8.20431 5.25437 8.3127 5.13087 8.41749 5.00436C8.56597 4.82484 8.70724 4.63928 8.84151 4.44855C8.96581 4.27204 9.09372 4.04962 9.19511 3.86083C8.35555 2.43303 6.91908 0.890137 5.14747 0.862119Z" fill="black" fill-opacity="0.6"/>
<path fill-rule="evenodd" clip-rule="evenodd" d="M5.08043 2.16003C6.01906 2.16003 6.7812 2.93439 6.7812 3.88784C6.7812 4.8415 6.01906 5.61564 5.08043 5.61564C4.14202 5.61564 3.37988 4.8415 3.37988 3.88784C3.37988 2.93439 4.14202 2.16003 5.08043 2.16003Z" fill="black" fill-opacity="0.6"/>
</svg>
